<svg height="2878" width="720" xmlns="http://www.w3.org/2000/svg">
<rect height="2878" fill="#555" width="720"></rect>
<text fill="#7f7" font-family="Courier New" font-size="12" xml:space="preserve">
<tspan x="10" y="26">└─┬ lab@13.0.1 </tspan>
<tspan x="10" y="42">  ├─┬ bossy@3.0.4 </tspan>
<tspan x="10" y="58">  │ └─┬ joi@10.4.1 </tspan>
<tspan x="10" y="74">  │   ├── isemail@2.2.1 </tspan>
<tspan x="10" y="90">  │   └── topo@2.0.2 </tspan>
<tspan x="10" y="106">  ├── diff@3.2.0 </tspan>
<tspan x="10" y="122">  ├─┬ eslint@3.17.1 </tspan>
<tspan x="10" y="138">  │ ├─┬ babel-code-frame@6.22.0 </tspan>
<tspan x="10" y="154">  │ │ └── js-tokens@3.0.1 </tspan>
<tspan x="10" y="170">  │ ├─┬ chalk@1.1.3 </tspan>
<tspan x="10" y="186">  │ │ ├── ansi-styles@2.2.1 </tspan>
<tspan x="10" y="202">  │ │ ├── escape-string-regexp@1.0.5 </tspan>
<tspan x="10" y="218">  │ │ ├── has-ansi@2.0.0 </tspan>
<tspan x="10" y="234">  │ │ ├── strip-ansi@3.0.1 </tspan>
<tspan x="10" y="250">  │ │ └── supports-color@2.0.0 </tspan>
<tspan x="10" y="266">  │ ├─┬ concat-stream@1.6.0 </tspan>
<tspan x="10" y="282">  │ │ ├── inherits@2.0.3 </tspan>
<tspan x="10" y="298">  │ │ ├─┬ readable-stream@2.2.6 </tspan>
<tspan x="10" y="314">  │ │ │ ├── buffer-shims@1.0.0 </tspan>
<tspan x="10" y="330">  │ │ │ ├── core-util-is@1.0.2 </tspan>
<tspan x="10" y="346">  │ │ │ ├── process-nextick-args@1.0.7 </tspan>
<tspan x="10" y="362">  │ │ │ ├── string_decoder@0.10.31 </tspan>
<tspan x="10" y="378">  │ │ │ └── util-deprecate@1.0.2 </tspan>
<tspan x="10" y="394">  │ │ └── typedarray@0.0.6 </tspan>
<tspan x="10" y="410">  │ ├─┬ debug@2.6.3 </tspan>
<tspan x="10" y="426">  │ │ └── ms@0.7.2 </tspan>
<tspan x="10" y="442">  │ ├─┬ doctrine@1.5.0 </tspan>
<tspan x="10" y="458">  │ │ └── isarray@1.0.0 </tspan>
<tspan x="10" y="474">  │ ├─┬ escope@3.6.0 </tspan>
<tspan x="10" y="490">  │ │ ├─┬ es6-map@0.1.5 </tspan>
<tspan x="10" y="506">  │ │ │ ├── d@1.0.0 </tspan>
<tspan x="10" y="522">  │ │ │ ├── es5-ext@0.10.15 </tspan>
<tspan x="10" y="538">  │ │ │ ├── es6-iterator@2.0.1 </tspan>
<tspan x="10" y="554">  │ │ │ ├── es6-set@0.1.5 </tspan>
<tspan x="10" y="570">  │ │ │ ├── es6-symbol@3.1.1 </tspan>
<tspan x="10" y="586">  │ │ │ └── event-emitter@0.3.5 </tspan>
<tspan x="10" y="602">  │ │ ├── es6-weak-map@2.0.2 </tspan>
<tspan x="10" y="618">  │ │ └─┬ esrecurse@4.1.0 </tspan>
<tspan x="10" y="634">  │ │   └── estraverse@4.1.1 </tspan>
<tspan x="10" y="650">  │ ├── estraverse@4.2.0 </tspan>
<tspan x="10" y="666">  │ ├── esutils@2.0.2 </tspan>
<tspan x="10" y="682">  │ ├─┬ file-entry-cache@2.0.0 </tspan>
<tspan x="10" y="698">  │ │ ├─┬ flat-cache@1.2.2 </tspan>
<tspan x="10" y="714">  │ │ │ ├── circular-json@0.3.1 </tspan>
<tspan x="10" y="730">  │ │ │ ├─┬ del@2.2.2 </tspan>
<tspan x="10" y="746">  │ │ │ │ ├─┬ globby@5.0.0 </tspan>
<tspan x="10" y="762">  │ │ │ │ │ ├─┬ array-union@1.0.2 </tspan>
<tspan x="10" y="778">  │ │ │ │ │ │ └── array-uniq@1.0.3 </tspan>
<tspan x="10" y="794">  │ │ │ │ │ └── arrify@1.0.1 </tspan>
<tspan x="10" y="810">  │ │ │ │ ├── is-path-cwd@1.0.0 </tspan>
<tspan x="10" y="826">  │ │ │ │ ├─┬ is-path-in-cwd@1.0.0 </tspan>
<tspan x="10" y="842">  │ │ │ │ │ └── is-path-inside@1.0.0 </tspan>
<tspan x="10" y="858">  │ │ │ │ ├── pify@2.3.0 </tspan>
<tspan x="10" y="874">  │ │ │ │ ├─┬ pinkie-promise@2.0.1 </tspan>
<tspan x="10" y="890">  │ │ │ │ │ └── pinkie@2.0.4 </tspan>
<tspan x="10" y="906">  │ │ │ │ └── rimraf@2.6.1 </tspan>
<tspan x="10" y="922">  │ │ │ ├── graceful-fs@4.1.11 </tspan>
<tspan x="10" y="938">  │ │ │ └── write@0.2.1 </tspan>
<tspan x="10" y="954">  │ │ └── object-assign@4.1.1 </tspan>
<tspan x="10" y="970">  │ ├─┬ glob@7.1.1 </tspan>
<tspan x="10" y="986">  │ │ ├── fs.realpath@1.0.0 </tspan>
<tspan x="10" y="1002">  │ │ ├─┬ inflight@1.0.6 </tspan>
<tspan x="10" y="1018">  │ │ │ └── wrappy@1.0.2 </tspan>
<tspan x="10" y="1034">  │ │ ├─┬ minimatch@3.0.3 </tspan>
<tspan x="10" y="1050">  │ │ │ └─┬ brace-expansion@1.1.6 </tspan>
<tspan x="10" y="1066">  │ │ │   ├── balanced-match@0.4.2 </tspan>
<tspan x="10" y="1082">  │ │ │   └── concat-map@0.0.1 </tspan>
<tspan x="10" y="1098">  │ │ ├── once@1.4.0 </tspan>
<tspan x="10" y="1114">  │ │ └── path-is-absolute@1.0.1 </tspan>
<tspan x="10" y="1130">  │ ├── globals@9.17.0 </tspan>
<tspan x="10" y="1146">  │ ├── ignore@3.2.6 </tspan>
<tspan x="10" y="1162">  │ ├── imurmurhash@0.1.4 </tspan>
<tspan x="10" y="1178">  │ ├─┬ inquirer@0.12.0 </tspan>
<tspan x="10" y="1194">  │ │ ├── ansi-escapes@1.4.0 </tspan>
<tspan x="10" y="1210">  │ │ ├── ansi-regex@2.1.1 </tspan>
<tspan x="10" y="1226">  │ │ ├─┬ cli-cursor@1.0.2 </tspan>
<tspan x="10" y="1242">  │ │ │ └─┬ restore-cursor@1.0.1 </tspan>
<tspan x="10" y="1258">  │ │ │   ├── exit-hook@1.1.1 </tspan>
<tspan x="10" y="1274">  │ │ │   └── onetime@1.1.0 </tspan>
<tspan x="10" y="1290">  │ │ ├── cli-width@2.1.0 </tspan>
<tspan x="10" y="1306">  │ │ ├── figures@1.7.0 </tspan>
<tspan x="10" y="1322">  │ │ ├─┬ readline2@1.0.1 </tspan>
<tspan x="10" y="1338">  │ │ │ ├── code-point-at@1.1.0 </tspan>
<tspan x="10" y="1354">  │ │ │ ├─┬ is-fullwidth-code-point@1.0.0 </tspan>
<tspan x="10" y="1370">  │ │ │ │ └── number-is-nan@1.0.1 </tspan>
<tspan x="10" y="1386">  │ │ │ └── mute-stream@0.0.5 </tspan>
<tspan x="10" y="1402">  │ │ ├── run-async@0.1.0 </tspan>
<tspan x="10" y="1418">  │ │ ├── rx-lite@3.1.2 </tspan>
<tspan x="10" y="1434">  │ │ ├── string-width@1.0.2 </tspan>
<tspan x="10" y="1450">  │ │ └── through@2.3.8 </tspan>
<tspan x="10" y="1466">  │ ├─┬ is-my-json-valid@2.16.0 </tspan>
<tspan x="10" y="1482">  │ │ ├── generate-function@2.0.0 </tspan>
<tspan x="10" y="1498">  │ │ ├─┬ generate-object-property@1.2.0 </tspan>
<tspan x="10" y="1514">  │ │ │ └── is-property@1.0.2 </tspan>
<tspan x="10" y="1530">  │ │ ├── jsonpointer@4.0.1 </tspan>
<tspan x="10" y="1546">  │ │ └── xtend@4.0.1 </tspan>
<tspan x="10" y="1562">  │ ├─┬ is-resolvable@1.0.0 </tspan>
<tspan x="10" y="1578">  │ │ └── tryit@1.0.3 </tspan>
<tspan x="10" y="1594">  │ ├─┬ js-yaml@3.8.2 </tspan>
<tspan x="10" y="1610">  │ │ ├─┬ argparse@1.0.9 </tspan>
<tspan x="10" y="1626">  │ │ │ └── sprintf-js@1.0.3 </tspan>
<tspan x="10" y="1642">  │ │ └── esprima@3.1.3 </tspan>
<tspan x="10" y="1658">  │ ├─┬ levn@0.3.0 </tspan>
<tspan x="10" y="1674">  │ │ ├── prelude-ls@1.1.2 </tspan>
<tspan x="10" y="1690">  │ │ └── type-check@0.3.2 </tspan>
<tspan x="10" y="1706">  │ ├── lodash@4.17.4 </tspan>
<tspan x="10" y="1722">  │ ├── natural-compare@1.4.0 </tspan>
<tspan x="10" y="1738">  │ ├─┬ optionator@0.8.2 </tspan>
<tspan x="10" y="1754">  │ │ ├── deep-is@0.1.3 </tspan>
<tspan x="10" y="1770">  │ │ ├── fast-levenshtein@2.0.6 </tspan>
<tspan x="10" y="1786">  │ │ └── wordwrap@1.0.0 </tspan>
<tspan x="10" y="1802">  │ ├── path-is-inside@1.0.2 </tspan>
<tspan x="10" y="1818">  │ ├── pluralize@1.2.1 </tspan>
<tspan x="10" y="1834">  │ ├── progress@1.1.8 </tspan>
<tspan x="10" y="1850">  │ ├─┬ require-uncached@1.0.3 </tspan>
<tspan x="10" y="1866">  │ │ ├─┬ caller-path@0.1.0 </tspan>
<tspan x="10" y="1882">  │ │ │ └── callsites@0.2.0 </tspan>
<tspan x="10" y="1898">  │ │ └── resolve-from@1.0.1 </tspan>
<tspan x="10" y="1914">  │ ├─┬ shelljs@0.7.7 </tspan>
<tspan x="10" y="1930">  │ │ ├── interpret@1.0.2 </tspan>
<tspan x="10" y="1946">  │ │ └─┬ rechoir@0.6.2 </tspan>
<tspan x="10" y="1962">  │ │   └─┬ resolve@1.3.2 </tspan>
<tspan x="10" y="1978">  │ │     └── path-parse@1.0.5 </tspan>
<tspan x="10" y="1994">  │ ├── strip-bom@3.0.0 </tspan>
<tspan x="10" y="2010">  │ ├── strip-json-comments@2.0.1 </tspan>
<tspan x="10" y="2026">  │ ├─┬ table@3.8.3 </tspan>
<tspan x="10" y="2042">  │ │ ├─┬ ajv@4.11.5 </tspan>
<tspan x="10" y="2058">  │ │ │ └── co@4.6.0 </tspan>
<tspan x="10" y="2074">  │ │ ├── ajv-keywords@1.5.1 </tspan>
<tspan x="10" y="2090">  │ │ ├── slice-ansi@0.0.4 </tspan>
<tspan x="10" y="2106">  │ │ └─┬ string-width@2.0.0 </tspan>
<tspan x="10" y="2122">  │ │   └── is-fullwidth-code-point@2.0.0 </tspan>
<tspan x="10" y="2138">  │ ├── text-table@0.2.0 </tspan>
<tspan x="10" y="2154">  │ └─┬ user-home@2.0.0 </tspan>
<tspan x="10" y="2170">  │   └── os-homedir@1.0.2 </tspan>
<tspan x="10" y="2186">  ├── eslint-config-hapi@10.0.0 </tspan>
<tspan x="10" y="2202">  ├─┬ eslint-plugin-hapi@4.0.0 </tspan>
<tspan x="10" y="2218">  │ ├── hapi-capitalize-modules@1.1.6 </tspan>
<tspan x="10" y="2234">  │ ├── hapi-for-you@1.0.0 </tspan>
<tspan x="10" y="2250">  │ ├── hapi-scope-start@2.1.1 </tspan>
<tspan x="10" y="2266">  │ └── no-arrowception@1.0.0 </tspan>
<tspan x="10" y="2282">  ├─┬ espree@3.4.1 </tspan>
<tspan x="10" y="2298">  │ ├── acorn@5.0.3 </tspan>
<tspan x="10" y="2314">  │ └─┬ acorn-jsx@3.0.1 </tspan>
<tspan x="10" y="2330">  │   └── acorn@3.3.0 </tspan>
<tspan x="10" y="2346">  ├── find-rc@3.0.1 </tspan>
<tspan x="10" y="2362">  ├─┬ handlebars@4.0.6 </tspan>
<tspan x="10" y="2378">  │ ├── async@1.5.2 </tspan>
<tspan x="10" y="2394">  │ ├─┬ optimist@0.6.1 </tspan>
<tspan x="10" y="2410">  │ │ └── wordwrap@0.0.3 </tspan>
<tspan x="10" y="2426">  │ ├─┬ source-map@0.4.4 </tspan>
<tspan x="10" y="2442">  │ │ └── amdefine@1.0.1 </tspan>
<tspan x="10" y="2458">  │ └─┬ uglify-js@2.8.21 </tspan>
<tspan x="10" y="2474">  │   ├── uglify-to-browserify@1.0.2 </tspan>
<tspan x="10" y="2490">  │   └─┬ yargs@3.10.0 </tspan>
<tspan x="10" y="2506">  │     ├── camelcase@1.2.1 </tspan>
<tspan x="10" y="2522">  │     ├─┬ cliui@2.1.0 </tspan>
<tspan x="10" y="2538">  │     │ ├─┬ center-align@0.1.3 </tspan>
<tspan x="10" y="2554">  │     │ │ ├─┬ align-text@0.1.4 </tspan>
<tspan x="10" y="2570">  │     │ │ │ ├─┬ kind-of@3.1.0 </tspan>
<tspan x="10" y="2586">  │     │ │ │ │ └── is-buffer@1.1.5 </tspan>
<tspan x="10" y="2602">  │     │ │ │ ├── longest@1.0.1 </tspan>
<tspan x="10" y="2618">  │     │ │ │ └── repeat-string@1.6.1 </tspan>
<tspan x="10" y="2634">  │     │ │ └── lazy-cache@1.0.4 </tspan>
<tspan x="10" y="2650">  │     │ ├── right-align@0.1.3 </tspan>
<tspan x="10" y="2666">  │     │ └── wordwrap@0.0.2 </tspan>
<tspan x="10" y="2682">  │     ├── decamelize@1.2.0 </tspan>
<tspan x="10" y="2698">  │     └── window-size@0.1.0 </tspan>
<tspan x="10" y="2714">  ├── hoek@4.1.1 </tspan>
<tspan x="10" y="2730">  ├── items@2.1.1 </tspan>
<tspan x="10" y="2746">  ├─┬ json-stable-stringify@1.0.1 </tspan>
<tspan x="10" y="2762">  │ └── jsonify@0.0.0 </tspan>
<tspan x="10" y="2778">  ├── json-stringify-safe@5.0.1 </tspan>
<tspan x="10" y="2794">  ├─┬ mkdirp@0.5.1 </tspan>
<tspan x="10" y="2810">  │ └── minimist@0.0.8 </tspan>
<tspan x="10" y="2826">  ├── seedrandom@2.4.2 </tspan>
<tspan x="10" y="2842">  ├── source-map@0.5.6 </tspan>
<tspan x="10" y="2858">  └── source-map-support@0.4.14</tspan>
</text>
</svg>
